<?xml version="1.0" standalone="no"?>
<!DOCTYPE svg PUBLIC "-//W3C//DTD SVG 20010904//EN"
 "http://www.w3.org/TR/2001/REC-SVG-20010904/DTD/svg10.dtd">
<svg version="1.0" xmlns="http://www.w3.org/2000/svg"
 width="516.000000pt" height="510.000000pt" viewBox="0 0 516.000000 510.000000"
 preserveAspectRatio="xMidYMid meet">

<g transform="translate(0.000000,510.000000) scale(0.100000,-0.100000)"
fill="#000000" stroke="none">
<path d="M3305 4591 c-71 -26 -193 -69 -270 -96 -77 -26 -144 -51 -148 -55 -7
-6 63 -662 79 -740 5 -26 51 -55 388 -238 l100 -54 45 22 c25 12 105 54 176
94 72 40 164 91 205 114 l75 41 48 377 c26 207 44 381 40 385 -12 11 -573 199
-592 198 -9 -1 -74 -23 -146 -48z m258 -221 c52 -113 140 -300 195 -417 55
-116 103 -221 107 -233 6 -20 4 -21 -61 -18 l-68 3 -44 103 -45 102 -180 -2
-181 -3 -39 -97 c-29 -72 -44 -97 -60 -102 -37 -10 -127 -7 -127 5 0 10 181
420 305 689 37 80 71 156 76 169 6 14 13 20 18 15 4 -5 51 -101 104 -214z"/>
<path d="M3402 4173 c-29 -71 -52 -131 -52 -135 0 -5 54 -8 121 -8 66 0 119 4
117 9 -16 42 -124 261 -129 261 -3 0 -29 -57 -57 -127z"/>
<path d="M3143 2993 l-81 -55 -44 25 c-109 64 -199 57 -323 -24 l-76 -50 18
-30 c25 -40 254 -382 264 -393 11 -13 153 90 182 132 41 58 49 91 45 177 l-3
80 75 51 c41 28 76 57 78 63 4 12 -38 81 -48 80 -3 0 -42 -25 -87 -56z"/>
<path d="M362 2894 c-20 -14 -22 -23 -22 -105 0 -87 1 -90 26 -99 14 -6 59
-10 100 -10 l74 0 0 -268 c0 -319 -7 -302 114 -302 108 0 116 6 116 85 0 81
13 95 85 95 39 0 58 -5 67 -17 7 -9 38 -42 68 -74 48 -50 65 -60 129 -79 231
-70 438 80 392 284 -19 86 -68 143 -171 199 l-33 18 59 35 c118 71 128 98 63
169 -59 64 -109 85 -202 85 -93 0 -137 -16 -194 -72 -46 -45 -63 -43 -63 7 0
65 -1 65 -308 65 -235 0 -281 -2 -300 -16z m956 -40 c38 -16 87 -56 103 -86 7
-13 -2 -24 -47 -53 l-56 -37 -27 26 c-38 37 -83 44 -110 17 -46 -46 -23 -80
95 -137 114 -56 151 -85 175 -139 44 -96 12 -207 -75 -260 -46 -28 -56 -30
-151 -30 -97 0 -103 1 -158 35 -54 33 -111 95 -101 111 2 4 30 21 61 38 l56
31 43 -40 c40 -37 48 -40 99 -40 42 0 60 5 75 20 46 46 20 81 -105 141 -156
75 -194 126 -183 253 6 69 36 112 102 142 61 28 148 32 204 8z m-383 -49 c3
-30 4 -59 0 -65 -3 -6 -49 -10 -106 -10 l-99 0 0 -285 0 -285 -75 0 -75 0 0
285 0 285 -100 0 -100 0 0 65 0 65 274 0 274 0 7 -55z"/>
<path d="M2485 2704 c-44 -31 -86 -58 -93 -61 -8 -3 -24 7 -37 23 l-23 29 -72
-50 c-121 -83 -156 -149 -146 -273 l6 -72 -80 -53 c-44 -28 -80 -58 -80 -65 0
-16 41 -72 52 -72 5 0 45 24 89 54 l81 54 50 -31 c42 -26 63 -32 123 -35 59
-3 79 0 115 18 57 29 150 91 150 100 0 3 -7 15 -15 26 -23 31 -18 40 43 80
103 68 133 95 130 118 -5 37 -37 29 -127 -33 -48 -33 -93 -61 -99 -63 -14 -4
-135 173 -125 182 4 4 50 35 101 69 93 62 97 67 86 95 -11 28 -47 16 -129 -40z"/>
<path d="M1680 1545 c-19 -7 -45 -14 -58 -14 -13 -1 -21 -5 -18 -10 3 -4 -3
-16 -14 -26 -11 -10 -20 -25 -20 -33 0 -9 8 -5 21 12 42 53 93 71 209 71 89 0
111 -4 147 -23 50 -26 89 -66 102 -104 9 -26 9 -27 -17 -16 -15 6 -83 12 -152
14 -69 2 -192 6 -273 8 -123 4 -149 2 -154 -10 -3 -8 1 -22 10 -32 8 -9 21
-36 27 -58 22 -74 46 -94 128 -106 94 -14 115 -5 132 56 13 48 32 72 49 61 6
-3 18 -31 27 -61 16 -55 34 -73 76 -75 60 -3 -99 -29 -192 -31 l-105 -3 27
-26 c14 -14 32 -44 39 -67 l12 -42 27 32 c22 27 26 37 19 57 -5 13 -8 25 -7
26 2 1 31 5 66 8 62 5 62 5 62 -21 0 -19 9 -32 29 -43 l29 -17 37 57 c26 41
45 60 68 67 18 5 41 23 53 42 l22 33 21 -53 c11 -29 20 -46 20 -38 0 8 -8 35
-19 59 -22 49 -19 75 11 92 13 6 19 18 17 32 -2 18 -9 21 -33 19 -27 -3 -32 2
-48 42 -37 91 -127 137 -266 135 -42 0 -92 -7 -111 -14z m20 -164 c33 -9 37
-46 10 -88 -19 -32 -22 -33 -90 -33 -58 0 -71 3 -80 19 -14 27 -13 84 2 99 13
13 115 15 158 3z m330 -24 c56 -28 27 -127 -38 -127 -55 0 -102 20 -117 50
-18 35 -19 77 -2 83 25 11 133 6 157 -6z"/>
<path d="M1605 1330 c-7 -23 2 -43 16 -35 12 8 12 55 0 55 -5 0 -12 -9 -16
-20z"/>
<path d="M1952 1304 c2 -15 9 -29 16 -32 10 -3 13 4 10 24 -2 15 -9 29 -16 32
-10 3 -13 -4 -10 -24z"/>
<path d="M3164 1323 c232 -402 292 -503 296 -503 3 0 33 48 67 108 33 59 111
194 172 300 61 106 111 195 111 198 0 2 -48 3 -107 2 l-108 -3 -62 -110 c-35
-60 -67 -110 -73 -110 -6 0 -39 50 -74 110 l-64 110 -110 3 -111 3 63 -108z"/>
<path d="M1760 1230 c0 -5 5 -10 10 -10 6 0 10 5 10 10 0 6 -4 10 -10 10 -5 0
-10 -4 -10 -10z"/>
<path d="M1790 1230 c0 -5 5 -10 10 -10 6 0 10 5 10 10 0 6 -4 10 -10 10 -5 0
-10 -4 -10 -10z"/>
<path d="M2132 1119 c-1 -26 -9 -65 -17 -88 -8 -23 -11 -39 -6 -37 15 10 33
91 28 131 l-4 40 -1 -46z"/>
<path d="M1837 979 c-33 -19 -57 -87 -73 -206 -8 -64 -17 -121 -20 -125 -3 -4
-14 -8 -25 -8 -19 0 -19 5 -13 75 6 64 5 75 -9 75 -14 0 -34 -20 -64 -66 -10
-16 -11 -12 -6 24 4 34 3 42 -10 42 -19 0 -43 -23 -62 -61 -9 -16 -17 -29 -18
-29 -1 0 -1 20 1 45 3 36 1 45 -12 45 -14 0 -21 -17 -40 -101 -7 -34 -79 -67
-102 -48 -12 10 -9 16 23 33 67 38 70 108 5 114 -37 4 -70 -25 -79 -68 -4 -25
-10 -30 -34 -30 -19 0 -29 -5 -29 -15 0 -8 7 -15 15 -15 8 0 30 -16 49 -35 39
-38 59 -42 111 -21 29 12 34 12 39 0 11 -30 36 -12 65 49 l31 62 -2 -53 c-1
-36 3 -56 12 -62 20 -12 25 -7 45 47 25 68 32 71 31 14 -1 -65 12 -79 59 -62
26 9 40 9 55 1 24 -13 101 0 149 24 25 13 28 13 39 -4 17 -28 74 -35 113 -16
29 15 33 15 44 -1 17 -24 30 -11 56 59 l23 62 8 -32 c5 -18 15 -35 23 -39 32
-12 104 24 91 45 -4 7 -15 7 -36 -1 -38 -15 -53 2 -44 50 5 26 2 34 -12 40
-12 4 -21 1 -28 -11 -6 -10 -17 -25 -24 -34 -11 -15 -12 -13 -10 13 2 21 -1
30 -12 30 -10 0 -20 -20 -30 -58 -16 -63 -40 -86 -92 -87 -32 0 -37 16 -8 25
46 15 77 94 48 123 -33 33 -99 -10 -119 -78 -7 -24 -21 -42 -36 -49 -22 -10
-24 -9 -18 9 19 61 -7 127 -46 115 -15 -5 -13 3 11 47 52 93 31 184 -33 147z
m18 -89 c-16 -44 -55 -114 -61 -108 -6 7 27 123 43 147 24 37 36 12 18 -39z
m-430 -140 c9 -15 -22 -60 -40 -60 -19 0 -19 20 1 48 17 24 29 28 39 12z m630
0 c9 -15 -22 -60 -40 -60 -17 0 -19 23 -5 51 12 21 35 25 45 9z m-197 -12 c32
-32 0 -108 -45 -108 -25 0 -25 2 -20 47 6 59 38 88 65 61z"/>
<path d="M2055 913 c4 -10 8 -24 8 -30 0 -17 29 -16 53 2 18 14 18 14 -3 9
-15 -4 -25 0 -32 15 -14 26 -36 29 -26 4z"/>
<path d="M1517 865 c-21 -44 -21 -44 2 -38 16 4 30 29 32 60 2 22 -19 8 -34
-22z"/>
<path d="M2162 855 c-6 -14 -7 -25 -2 -25 9 0 25 39 18 46 -3 2 -10 -7 -16
-21z"/>
</g>
</svg>
